<svg width="312" height="80" viewBox="0 0 207 53" fill="none" xmlns="http://www.w3.org/2000/svg">
<path d="M74.0112 17.53H76.9212V37H74.0112V17.53ZM81.9507 17.53H88.7907C90.5107 17.53 91.8507 17.64 92.8107 17.86C93.7907 18.06 94.5007 18.43 94.9407 18.97C95.4007 19.51 95.6307 20.3 95.6307 21.34V24.7C95.6307 25.86 95.1507 26.76 94.1907 27.4C93.2507 28.02 92.0507 28.33 90.5907 28.33L96.8307 37H93.2607L87.6807 28.69H84.8607V37H81.9507V17.53ZM88.6707 26.77C90.1107 26.77 91.1407 26.6 91.7607 26.26C92.4007 25.9 92.7207 25.26 92.7207 24.34V21.64C92.7207 20.18 91.4607 19.45 88.9407 19.45H84.8607V26.77H88.6707ZM108.496 37.3C103.036 37.3 100.306 35.54 100.306 32.02V22.78C100.306 19.06 103.036 17.2 108.496 17.2C110.356 17.2 112.136 17.39 113.836 17.77V19.93C111.916 19.45 110.156 19.21 108.556 19.21C107.776 19.21 107.096 19.26 106.516 19.36C105.936 19.44 105.376 19.59 104.836 19.81C103.676 20.31 103.096 21.29 103.096 22.75V31.87C103.096 34.11 104.956 35.23 108.676 35.23C110.276 35.23 112.036 34.99 113.956 34.51V36.73C112.256 37.11 110.436 37.3 108.496 37.3ZM124.753 17.53H138.133V19.57H127.663V25.93H137.143V27.97H127.663V37H124.753V17.53ZM141.541 17.53H144.451V37H141.541V17.53ZM154.28 19.57H147.68V17.53H163.79V19.57H157.22V37H154.28V19.57Z" fill="url(#paint0_diamond)"/>
<path d="M6.02177 25.251C5.21929 27.2382 4.51455 29.4439 4.22816 32.0281C3.12748 41.9597 10.6749 49.8996 20.5355 49.8996C30.3962 49.8996 38.3899 41.7978 38.3899 31.8038C38.3899 29.9592 37.5358 27.3331 37.5358 27.3331C36.757 32.563 32.4731 35.5232 32.4731 35.5232C35.1018 28.5173 33.7104 22.1874 30.5259 17.5643C23.3214 7.10462 25.1712 0 25.1712 0C15.5326 8.68343 16.1168 18.255 16.1168 18.255C15.2319 12.4498 7.99521 10.1406 7.99521 10.1406C10.3822 14.2428 9.52344 17.4218 7.92145 20.9337C6.75347 23.494 6.02177 25.251 6.02177 25.251Z" fill="#FF3679"/>
<path d="M26.5607 17.5643C29.7451 22.1874 33.0734 26.255 32.4786 35.492C33.2717 33.3835 33.8665 30.5723 33.8527 28.3063C33.8757 24.204 32.5704 20.5324 30.526 17.5644C23.3214 7.10462 25.1712 0 25.1712 0C23.5492 1.46135 22.2178 2.94769 21.1232 4.40944C21.4925 7.50863 22.7788 12.0738 26.5607 17.5643Z" fill="#FF7934"/>
<path d="M8.12632 17.7664C7.03586 12.4451 0 10.186 0 10.186C0.622158 11.2553 1.02216 12.2614 1.24759 13.2275C3.56621 13.9511 8.12632 17.7664 8.12632 17.7664Z" fill="#FF7934"/>
<path d="M37.5406 27.3786C37.1059 30.2976 35.5795 32.5091 34.3153 33.8941C33.3859 42.2679 26.8191 48.9112 18.5513 49.8342C19.2023 49.9066 19.8656 49.9451 20.5403 49.9451C30.401 49.9451 38.3947 41.8434 38.3947 31.8493C38.3947 30.0047 37.5406 27.3786 37.5406 27.3786Z" fill="#FF7934"/>
<path d="M24.967 37.8466C25.6499 39.2801 26.1394 40.6233 26.1394 41.5291C26.1394 44.5266 23.7401 46.9565 20.7805 46.9565C17.8209 46.9565 15.4217 44.5266 15.4217 41.5291C15.4217 38.5316 20.7805 30.7448 20.7805 30.7448C20.7805 30.7448 22.0144 32.5378 23.2981 34.7342L24.967 37.8466Z" fill="#FF7934"/>
<defs>
<radialGradient id="paint0_diamond" cx="0" cy="0" r="1" gradientUnits="userSpaceOnUse" gradientTransform="translate(45 26.5) rotate(-0.197565) scale(145.001 564.328)">
<stop offset="0.350694" stop-color="#FF3879" stop-opacity="0.744792"/>
<stop offset="0.515625" stop-color="#FF7934" stop-opacity="0"/>
<stop offset="0.652778" stop-color="#FF3879" stop-opacity="0.744792"/>
<stop offset="1" stop-color="white"/>
</radialGradient>
</defs>
</svg>
